<?xml version="1.0" encoding="utf-8"?>
<!-- Generator: Adobe Illustrator 25.0.1, SVG Export Plug-In . SVG Version: 6.00 Build 0)  -->
<svg version="1.1" id="Layer_1" xmlns="http://www.w3.org/2000/svg" xmlns:xlink="http://www.w3.org/1999/xlink" x="0px" y="0px"
	 viewBox="0 0 1280 660" style="enable-background:new 0 0 1280 660;" xml:space="preserve">
<style type="text/css">
	.st0{fill:#EAD57F;}
</style>
<g transform="translate(0.000000,660.000000) scale(0.100000,-0.100000)">
	<path class="st0" d="M-80,6644.4c-21-16-39-51-39-75c0-23,70-88,147-138c48-31,59-34,130-34c70,0,83-3,122-30c25-17,55-48,68-70
		s44-51,68-65c36-22,44-32,50-65c9-54,41-99,100-138c30-20,60-52,76-81c15-26,46-60,69-76c73-50,90-79,90-146c0-71,20-125,52-140
		c13-5,32-27,43-47c15-27,32-41,65-53c41-15,48-22,82-91c55-110,147-195,248-227c73-23,130-66,130-98c0-22,61-82,121-118
		c68-42,89-68,89-110c0-37,49-118,83-137c13-7,44-28,67-45c38-29,50-33,108-33c51,0,78-6,131-31c80-38,97-53,123-104
		c25-50,57-85,77-85c9,0,40-10,69-22c52-22,54-22,120-5c90,23,98,22,156-18c49-33,55-34,151-37c89-2,105,0,136,20c31,19,38,20,55,8
		c32-22,85-28,139-14c43,11,57,11,105-4c125-39,153-41,228-19c114,34,152,25,152-38c0-29,40-51,104-58c39-4,57-11,61-22
		c3-9,30-42,59-74l54-58l49,6c26,4,52,11,57,16c5,4,18,3,29-2c14-8,32-7,64,2c42,11,49,10,89-11c41-23,47-23,102-12
		c105,22,128,13,92-36c-27-36-15-74,32-98c18-9,40-25,49-36c12-16,35-21,119-28c63-6,119-6,144,0c23,5,57,10,76,10c20,0,40,4,46,10
		c14,14,101-71,136-132c34-58,69-81,162-104c97-23,164-58,206-106c30-33,44-41,83-45c48-6,48-6,82-73c37-74,62-91,130-89
		c22,0,71-2,108-5c58-5,72-3,92,12c20,16,32,18,85,10c40-5,68-4,81,3c30,15,150-35,204-86c23-22,56-47,72-56c17-9,49-44,72-78
		c47-69,88-95,131-86c30,7,32,5,125-80c12-12,30-43,40-70c25-68,48-91,132-131c78-38,123-81,123-120c0-53,63-84,138-66
		c25,5,51,8,58,5c7-2,23-30,35-61c13-33,46-81,76-114c31-34,56-72,63-96c12-47,64-97,115-111c19-5,49-21,66-35s41-26,54-26
		c44,0,75-22,96-69c11-25,28-55,39-66c10-11,22-32,25-48c5-19,15-29,34-32c14-3,39-12,54-20c16-8,48-15,71-15c44,0,66-13,66-40
		c0-9,13-34,29-56c38-51,44-79,31-137c-9-42-7-54,11-98c19-43,20-52,8-60c-8-5-19-9-25-9s-19-9-28-19c-17-19-17-22,8-75
		c14-30,26-68,26-84c0-42,34-81,78-88c51-8,66-21,85-78c19-54,16-66-9-45c-15,12-16,11-9-11c11-36,55-121,70-137c7-7,11-22,8-33
		c-3-12,0-21,8-23s30-9,49-15c32-10,33-10,16,3c-11,8-31,15-44,15c-20,0-23,4-18,24c4,15,0,28-9,36c-13,11-55,93-55,108
		c0,3,14-7,30-23c17-16,30-23,30-16c0,8,12,4,33-10c26-19,23-14-13,22c-29,28-48,41-53,34c-6-6-7-3-4,6c12,38-78,204-91,168
		c-7-17-49-9-70,14c-14,15-22,36-22,59c0,19-9,56-21,82c-21,49-19,66,10,66c41,0,55-24,57-99c1-67,14-101,37-101c5,0,2,9-8,20
		c-15,16-18,36-18,88c1,61-1,69-25,89c-15,13-22,23-16,23c22,0,24,31,4,67c-16,30-18,49-13,113c4,51,2,84-6,99c-18,33-8,35,27,6
		c16-14,39-25,49-25c22,0,53-29,54-51c0-8,15-34,33-59c29-40,38-46,79-50c43-5,49-9,68-45c12-22,27-47,35-56s13-34,12-56
		c-1-23,6-50,15-64c10-13,17-18,17-11c0,16,62,16,78,0c7-7,12-22,12-34s11-47,25-78c19-43,33-60,56-70c19-8,37-26,45-44
		c8-21,22-34,41-38c40-10,81-41,88-67c4-12,24-38,44-58s54-59,76-88c22-28,47-53,55-56c8-4,1,8-15,26c-23,24-25,30-10,24
		c11-5,35-9,53-9c41,1,40-13-3-59c-35-37-43-61-25-72c6-3,11-16,11-28c1-16,3-17,6-5c2,9-1,27-7,39c-10,19-7,26,24,58
		c20,20,36,43,37,51c0,10,4,8,10-5c8-18,8-18,6,5c-2,30-59,62-95,54c-18-4-34,6-73,45c-27,27-49,46-49,43c-1-4-6,5-13,20
		c-17,38-96,131-133,157c-18,12-44,26-60,30c-15,4-31,14-35,22c-26,49-39,86-39,110c0,35-24,59-60,59c-51,0-60,8-54,49
		c5,30,0,43-26,79c-17,24-29,49-27,55c2,7-2,17-9,22c-6,6-15,20-19,33l-6,22l33-20c18-10,47-27,63-36c17-9,45-27,63-41
		c29-22,32-28,26-58c-5-30-2-36,40-71c26-21,51-53,57-72c6-18,13-31,16-28s19-2,35-10c20-10,1,14-56,71c-47,48-86,93-86,99
		c0,29,23,36,54,17c22-13,59-20,123-24c50-3,102-11,115-17c22-12,22-12,6,6c-14,14-39,19-117,24c-90,5-102,9-136,35
		c-20,17-45,34-56,40c-10,5-19,17-19,25s-11,39-25,69s-23,56-20,59s16,0,29-6c24-11,36-7,36,10c0,5-4,6-10,3c-5-3-10-1-10,5
		s6,10,13,9c26-3,47,1,47,11c0,6-10,10-22,10c-35,0-68,11-68,22c0,7,18,9,46,5c42-4,57-14,67-40c1-5,18-4,37,1c34,10,34,10,7,11
		c-16,1-40,10-54,21c-18,14-41,20-75,20s-57,6-78,22c-16,12-32,19-36,16c-3-4,4-9,15-13c29-9,26-32-5-39c-35-9-52,7-33,30
		c13,16,12,16-5,7c-22-12-64-1-106,27c-14,9-36,20-50,23c-29,7-67,33-60,41c9,8,98,8,165,0c46-5,70-15,105-41c49-37,39-37,183-15
		c31,4,63,5,70,0c6-4,36-8,65-8c28,0,52-4,52-8c0-23,43-52,76-52c28,0,43-9,79-46c40-41,48-45,76-39c27,6,36,2,73-33
		c22-22,52-42,66-45c40-9,144-48,158-59c6-6,12-25,12-44c0-55,16-83,90-159c11-12,20-32,20-47c0-19,9-31,35-47c41-24,66-73,58-113
		c-4-20,2-36,21-58c14-18,26-41,26-54c0-36,27-63,75-75c45-11,48-15,57-75c2-10,10-22,18-26s25-12,37-18c13-7,35-12,50-12
		c18,0,41-13,69-41c39-38,44-40,71-30c28,10,28,10,2,8c-17-1-41,12-75,41c-27,23-55,40-63,37c-7-3-31,2-52,12c-33,14-39,21-39,48
		c0,34-26,65-54,65c-21,0-58,19-68,34c-14,21-8,36,15,36c12,0,32,7,44,15c20,14,25,12,75-21c29-20,56-41,60-47c6-9,8-9,8,0
		c0,12-13,23-84,69c-35,23-40,24-62,9c-35-23-56-18-86,19c-20,25-28,46-28,76c0,40-23,100-38,100c-20,0-52,43-52,69c0,19-8,34-24,44
		c-42,28-86,106-86,152c0,24-6,47-13,53c-13,11-137,60-174,69c-27,6-30,21-5,29c9,3,32,12,51,20c33,15,33,15,68-26
		c19-22,44-40,54-40c50,0,84-47,112-152c12-45,26-68,65-108c48-49,52-50,91-44c40,6,43,5,83-40c36-40,47-46,77-44l36,1l-32,4
		c-20,3-37,12-44,25c-8,14-8,18,0,14c6-4,24,0,40,9c48,24,77,20,91-15c16-40,23-33,9,8c-6,18-18,33-27,33c-31,2-57-3-69-13
		c-9-7-17-7-27,1c-11,9-15,9-19-1c-3-10-9-10-23-2c-11,6-19,16-19,22s-4,14-9,19s-6,3-2-4c5-8,1-13-9-13c-11,0-15,5-12,14
		c4,10,1,13-9,9c-8-3-21,0-29,7c-13,11-14,10-10-3c10-23-11-29-44-12c-29,15-60,54-44,56c24,3,79-4,87-11c5-5,15-6,23-3
		c7,3,24-3,36-13l22-19l-19,22c-19,23-35,28-127,38l-55,6l-16,52c-21,69-12,80,61,75c40-2,63,2,79,14c28,19,51,14,113-24
		c25-15,55-28,67-28c11,0,40-16,63-36c61-50,81-57,132-39c57,20,70,19,95-8c19-20,21-31,16-70c-6-42-5-47,17-55c36-14,148-34,158-28
		c5,3,16-5,25-19c12-18,26-25,47-25c27,0,33-6,54-55c19-42,33-59,60-72c35-17,35-16,64,11c36,34,64,29,88-17c8-18,24-43,34-56
		c11-13,19-32,19-42c0-9,12-31,26-48c23-27,30-30,63-25c29,5,40,2,55-15c10-11,22-18,27-16c4,3,32-5,61-19c29-13,66-28,82-32
		c19-6,32-18,36-34c16-57,62-139,82-146c12-3,43-27,70-52c44-41,51-44,73-34c26,12,25,14,62-53c6-11,18-19,28-17s37-7,61-20
		c38-20,48-21,74-11c31,12,32,11,51-30c10-23,19-56,19-73c0-42,19-48,72-24c24,11,36,20,28,19c-8,0-26-6-39-13c-33-18-51-10-51,24
		c0,16-4,40-9,53c-8,21-6,26,12,31c45,12,92,6,104-13c6-10,26-21,43-25c23-4,35-14,43-35c8-22,19-31,45-36c25-5,36-13,43-35
		c6-16,21-36,35-45c16-10,24-25,24-44c0-33,33-113,54-130c10-9,8,2-6,31c-12,24-23,62-26,86c-4,33-12,49-33,65c-16,11-29,28-29,37
		c0,22-28,46-62,54c-18,4-28,13-28,25c0,23-16,37-52,46c-17,4-30,17-37,35c-14,41-44,54-105,45c-121-16-132-16-183,3
		c-37,13-60,29-76,53c-20,30-28,34-60,31c-31-2-39,1-48,21c-6,13-26,31-44,40c-44,21-81,71-95,130c-7,26-16,50-21,53
		c-10,6-12,47-4,56c3,3,29,1,58-4c36-7,62-7,83,1c50,18,80,1,88-49c4-24,17-52,31-66c27-27,65-32,65-8c0,8,13,20,30,25
		c32,12,32,29,0,29c-12,0-26-13-35-30c-19-36-25-37-53-7c-28,29-28,36,1,31l22-5l-22,10c-13,6-23,17-23,26c0,19,11,19,35,1
		c13-10,26-11,50-3c25,7,40,5,74-13c31-15,46-19,54-11c6,6,22,11,36,12c15,0,20,3,14,6c-17,6-16,23,1,23c7,0,21-11,30-25
		c20-30,33-31,66-4l25,20l-32-16c-31-15-33-14-49,10c-20,31-43,32-78,4c-27-21-28-21-66-4c-23,10-52,15-71,13c-33-5-75,11-118,44
		c-27,20-61,24-78,7c-8-8-30-8-79,0c-42,6-72,7-79,1c-12-10-68,57-99,118c-9,18-28,38-41,44c-26,12-29,19-19,56c8,28,19,28,42,1
		c30-37,112-117,112-109c0,4-31,40-70,79c-39,40-70,76-70,81s7,16,16,24c14,15,19,14,52-12c45-36,102-65,110-58c3,3,1,6-3,6
		c-5,0,0,7,11,15c18,14,17,14-14,8c-27-5-42,1-87,32c-31,21-61,35-70,32c-8-4-22-33-32-67c-10-33-23-60-29-60s-23,10-38,21
		c-22,17-35,20-67,15c-60-10-144,32-160,81c-11,35-11,35-59,29c-36-5-50-3-60,9c-7,8-27,15-45,15c-32,0-33,1-28,37c4,36,2,41-50,85
		l-54,46l-61-5c-55-5-64-3-92,21c-36,30-62,32-113,11c-20-8-44-12-54-9c-16,6-83,69-83,79c0,2,17,13,37,26c21,12,47,30,58,40
		c23,19,93,28,265,35c63,2,137,9,163,14c26,6,63,10,81,10c19,0,39,7,47,17c8,9,43,30,79,46s82,45,102,64l37,36l93-12
		c51-7,94-14,96-16c9-9,59,25,72,49c9,18,22,26,39,26c15,0,36,7,48,15c17,12,36,14,85,8c171-19,296,1,341,54l28,33l94-1
		c51-1,98,2,104,5c6,4,36,2,67-4c54-11,64-18,156-102c23-21,45-38,49-38s14-6,21-13s49-22,93-35c103-28,272-25,339,8
		c25,12,77,23,134,29c67,6,102,14,120,28c44,33,75,47,117,54l40,6l-46,2c-35,1-56-6-95-31c-43-27-62-32-154-40c-66-6-114-15-129-25
		c-35-23-260-22-293,1c-12,9-31,16-41,16c-33,0-92,38-161,104c-39,37-78,66-90,66c-12,1-32,7-45,14c-18,10-47,12-101,9
		c-48-4-91-1-114,7c-32,10-40,10-55-4c-10-9-25-16-34-16s-26-13-38-30c-17-23-33-31-68-35c-25-3-65-10-88-15c-30-7-50-6-75,4
		c-18,7-39,11-47,8c-7-2-30,1-51,8c-34,11-42,10-73-9c-19-11-47-21-63-21c-35,0-44-6-68-43c-14-23-22-27-39-22c-12,4-38,9-57,10
		c-19,2-51,7-71,10c-42,8-109-21-134-58c-8-13-38-30-72-42c-32-10-63-24-69-31c-24-29-73-37-235-39c-92-1-173-6-180-11
		c-8-5-39-9-69-9c-48,0-62-5-115-43c-34-23-64-42-68-42s-7,16-7,35c0,46-33,80-91,95c-83,21-129,42-149,68c-44,60-100,92-169,99
		c-31,3-65,11-76,17s-38,16-60,21c-36,10-43,17-72,77c-30,62-35,68-75,78c-24,7-57,21-75,31c-20,13-40,18-56,13c-18-4-39,2-70,20
		c-32,19-58,26-95,26c-46,0-56,4-101,44c-39,34-60,45-98,50c-97,13-211-24-288-95c-45-42-48-43-118-44c-55-1-85-8-126-28
		c-30-14-59-23-65-19c-6,3-59,7-119,8c-106,3-107,3-132,33c-15,17-50,39-83,51c-31,12-75,34-97,50c-23,15-54,30-70,32
		c-26,3-34,12-60,65c-16,34-49,81-71,105c-23,24-54,68-68,99c-45,97-85,125-167,117c-41-4-42-3-82,59c-36,56-47,66-123,104
		c-77,38-103,59-72,59c7,0,36,26,64,57l51,58l78-39c109-54,217-80,264-65c10,3,17-7,22-29c4-19,12-39,18-45s11-26,11-43
		c0-37,35-72,83-81c16-3,35-16,43-29c15-22,27-27,113-40c33-5,53-15,74-39c28-31,31-32,90-28c57,5,64,3,86-21c14-15,36-26,50-26
		c14-1,37-7,50-14c20-11,31-11,71,2c45,14,50,14,134-13c85-27,88-27,148-13l62,15l65-35c36-19,79-47,94-61c26-24,35-26,127-26
		c90,0,101-2,124-24c14-13,28-32,31-41c7-22,73-75,105-85c17-4,9,4-22,27c-30,20-56,49-68,75c-21,44-89,91-112,77c-6-4-40-6-76-5
		c-57,2-68,5-91,30c-15,16-60,45-101,66l-75,38l-82-13c-82-13-82-13-121,13c-37,26-41,27-112,18c-58-8-79-7-101,5c-16,8-36,14-45,14
		c-10,0-29,10-42,23c-20,18-34,22-88,21c-48-1-64,3-64,13c0,21-59,51-116,59c-41,5-58,13-78,35c-15,16-35,29-45,29
		c-36,0-50,12-57,48c-3,21-12,46-19,58c-7,11-15,41-17,65l-3,44l46-3c35-2,54,3,82,23c63,42,94,55,134,55c21,1,49,7,62,14
		c31,17,82-2,118-44c15-19,38-32,61-36c20-3,49-14,64-25c36-25,112-25,163,1c50,25,55,25,55-3c0-32,27-55,70-59c32-3,37-8,55-53
		c11-28,39-70,62-94c38-40,44-43,71-33c24,8,31,7,40-8c17-27,98-63,127-56c30,8,55,53,55,101c0,41,17,46,46,14c15-16,26-20,55-15
		c43,7,90-13,113-49c20-30,29-31,65-4c39,29,59,16,116-72c43-67,48-71,76-65c20,4,42-1,70-16c37-19,45-20,73-9c62,26,77,25,103-3
		c15-17,31-25,41-21c8,3,33-6,54-20c36-24,42-25,61-12c12,8,46,22,75,32c53,17,54,17,77-5s27-22,84-10c33,7,71,10,84,6
		c16-4,29,0,37,9c11,14,16,13,44-3c34-20,66-33,66-28c0,2-21,16-46,31c-40,23-50,25-69,15c-18-9-27-9-44,2c-18,11-26,11-52-4
		c-40-23-78-23-104,2c-20,19-21,19-85-1c-35-11-70-25-77-31c-11-9-20-6-39,15c-16,17-35,27-53,27c-15,0-36,9-45,19
		c-10,11-29,21-42,23l-24,3l31,33c35,38,61,40,92,9c18-17,30-21,52-16c29,6,29,7,4,8c-15,0-38,10-52,21c-38,30-65,25-118-25
		c-40-37-55-45-86-45c-21,0-48,7-60,15c-14,10-32,13-47,9c-22-5-30,2-74,69l-50,76l39,41c30,32,43,39,56,32c10-5,54-17,98-27
		s89-24,100-32c11-7,31-13,45-13c17,0,34-12,54-36c27-34,31-36,85-33c31,1,75-3,98-11c40-12,46-11,94,14l51,26l32-20
		c32-19,33-19,87,1c30,11,64,31,76,44c27,30,40,92,24,108c-17,17-13,37,8,37c12,0,25-11,33-27c10-21,22-29,48-31c38-4,114,29,124,53
		c3,9,19,15,40,15c19,0,38,5,41,10c3,6,23,10,44,10c30,0,48-9,91-46c52-44,55-46,104-39c61,7,102,7,176,1c31-3,65,0,77,6
		c17,8,29,8,48,0c19-9,32-8,61,4c51,21,135,10,165-22c26-27,46-30,74-10c11,7,37,16,58,20c20,3,53,9,72,12c20,4,49,1,66-6
		c25-11,32-11,39,0c6,11,16,10,49-3c25-10,42-13,46-7c3,6-4,10-17,10s-34,7-46,16c-18,12-26,13-37,4s-22-9-49,1s-43,10-74,1
		c-22-7-53-12-69-12c-17,0-36-7-43-15c-17-20-22-19-65,15c-33,26-45,30-99,29c-33,0-70-4-81-8c-11-5-28-4-39,1c-13,7-38,6-77-2
		c-50-11-64-10-106,5c-46,16-51,16-81,1c-45-23-79-20-105,10c-12,14-41,37-65,51c-34,20-50,24-85,19c-23-4-61-9-85-12
		c-27-4-48-13-55-25c-6-10-17-19-23-19s-17-7-24-15c-18-22-46-18-63,9c-9,13-29,28-44,33c-60,21-103-24-85-88c14-51,0-76-50-90
		c-33-9-50-9-73,1c-56,22-63,22-104-6c-41-27-41-27-81-9c-27,12-51,16-82,11c-49-7-55-4-87,42c-18,25-30,33-50,31c-14-2-39,4-56,12
		c-45,23-229,63-256,56c-13-4-31-20-41-36c-11-20-29-33-54-40c-36-10-41-9-70,20c-20,20-34,45-38,69c-13,81-108,115-196,70
		c-53-27-74-60-66-104c5-28,3-37-11-44c-42-22-80-23-137-2c-52,20-59,26-80,73c-26,59-51,85-92,96c-19,5-30,15-32,29
		c-4,25-56,72-81,72c-10,0-27-11-38-24c-30-35-98-44-126-18c-12,11-39,23-59,26c-23,4-56,23-82,45c-55,48-103,58-165,36
		c-24-8-60-15-80-15c-25,0-53-11-89-35c-47-30-58-34-97-28c-33,4-51,1-70-11l-26-17l-19,45c-20,45-105,135-140,148
		c-15,5-17,14-13,46c3,23,0,49-8,64c-17,32-138,125-173,134c-14,3-26,9-26,14c0,10,119,3,133-8c7-5,35-17,64-26c28-10,57-24,63-32
		c15-17,92-19,121-3c29,15,52-7,46-44c-3-24,1-32,27-48c17-10,43-19,58-19s30-5,33-10s16-10,29-10c12,0,33-12,47-26
		c20-22,30-25,63-21c21,3,61,17,89,31c30,16,58,24,71,21c17-5,18-4,6,5c-13,9-12,12,4,25c11,8,25,15,30,15c20,0,55-68,62-119
		c4-29,14-57,25-67c16-15,20-15,48,2c17,10,31,22,31,27s5,7,11,5s10-7,9-12c-3-14,22-26,53-26c23,0,31,7,47,45c21,50,41,57,64,23
		c9-12,16-19,16-14c0,4-9,21-21,37c-15,21-29,29-50,29c-33,0-91,27-129,60c-20,18-33,21-67,16c-37-5-46-2-75,24c-38,35-34,36,38,13
		c48-15,56-15,96-1c24,9,70,21,103,27c99,18,102,19,71,20c-44,2-157-20-189-36c-25-12-34-12-90,8c-36,13-77,36-97,56
		c-34,33-35,34-15,49c15,11,33,13,75,7c48-7,84-7,148-3c36,3,108-13,124-28c10-8,24-12,32-9s35-1,62-9c55-16,108-18,133-4
		c13,7,29,4,57-10c21-11,52-20,69-20c16,0,47-5,68-11c36-10,41-8,77,23c49,42,52,59,3,22c-38-29-64-33-140-19c-45,8-54,18-27,29
		c9,4,14,9,11,12s-15,0-27-6c-18-10-29-9-56,6c-19,10-34,21-34,25c0,16-41,15-77-1c-35-15-43-16-66-3c-21,10-32,11-48,3
		c-16-9-23-8-32,3c-12,15-75,28-129,27c-16,0-40,0-55,0c-26-1-107,9-214,25c-33,5-54,3-77-9c-40-21-37-22-60,18l-20,33l-103,9
		c-57,4-108,7-114,7c-37-6-101-26-112-35c-7-5-24-7-38-4c-29,7-102-10-125-30c-17-15-116-10-162,8c-22,8-33,7-51-5
		c-22-14-26-14-49,1c-14,9-40,32-57,51c-27,29-35,32-59,25c-15-5-54-9-86-8c-50,0-62,4-75,23c-42,62-154,148-214,166
		c-42,12-58,29-99,104c-10,17-25,31-36,31c-10,0-43-20-73-45c-30-24-67-55-84-68c-16-13-47-27-67-31c-31-6-37-4-43,13
		c-9,28-31,44-73,50l-37,6l-1,59c-1,49-5,62-23,78c-29,23-103,24-137,1c-25-16-26-16-91,52c-61,64-68,68-112,70c-25,1-59,7-76,14
		c-22,9-40,9-77,0c-41-9-52-9-73,5c-13,9-29,16-36,16c-6,0-57-32-112-71c-76-53-105-69-117-62c-8,5-33,44-54,87c-34,67-48,84-93,112
		c-36,24-55,43-59,62c-11,52-22,69-59,87c-53,25-128,17-182-19c-38-25-52-28-145-31c-57-2-106-4-110-4c-3-1-20-13-37-27l-31-26
		l-34,21c-54,34-328,139-382,146c-27,4-57,12-68,17c-17,9-16,11,10,29c16,10,40,19,53,19c14,0,43,12,64,27c22,15,56,33,76,40
		c31,11,40,10,69-7c40-24,54-25,91-6c26,14,32,13,87-14c32-16,85-34,118-41c58-13,59-13,78,14c11,15,37,36,57,46c35,18,38,18,61,2
		c14-10,43-24,65-32c37-14,44-14,105,8c46,16,57,23,38,23c-31,0-33,3-18,31c7,11,21,19,38,19c15,0,38,7,52,15c50,29,52,29,73,1
		c15-21,25-26,46-21c23,5,33-3,87-68c66-78,101-97,181-97c23,0,57-7,76-15c25-10,57-13,106-10c68,5,72,3,167-45c54-28,107-50,117-50
		c11,0,37-16,58-35c32-29,46-35,82-34c62,1,92,12,95,34c2,18,2,18-8,3c-18-28-84-33-134-8c-41,19-64,46-51,58c3,3,11,0,17-6
		c7-7,17-12,23-12c5,0,2,7-8,14c-12,9-32,12-58,9c-34-5-53,1-115,33c-40,21-72,43-71,49c2,5,21,15,42,21c30,8,42,18,52,42
		c16,38,37,41,58,8c12-18,27-25,68-29c29-3,57-1,62,3c6,5,37,17,70,29l60,20l45-49c45-50,82-71,123-69c25,1,19,4-41,19
		c-34,9-50,21-78,60c-40,56-51,59-124,30c-29-11-74-20-106-20c-48,0-56,3-66,25c-6,14-19,25-30,25c-10,0-18,5-18,10c0,20,30,22,70,6
		c22-9,53-16,68-16c21,1,15,5-26,19c-28,10-62,27-74,37s-18,14-15,8c4-7-10-23-31-38c-48-33-69-34-37-1c14,13,25,29,25,35
		c0,5,7,10,16,10c8,0,12,5,9,10c-11,17-23,11-37-17c-8-18-34-38-68-56l-55-27l-51,19c-59,23-120,73-140,116c-8,17-27,50-42,75
		c-27,44-30,45-83,48c-81,3-99,9-92,29c5,12,1,11-15-5c-12-12-32-24-44-27c-13-3-41-9-63-15c-40-10-40-10,11-5c44,3,55,0,74-20
		c32-34,22-55-38-77c-54-20-54-20-75,0c-12,11-32,22-44,24c-21,3-21,3-3,41c21,44,7,40-16-4c-8-17-21-28-28-26c-16,6-76-19-76-32
		c0-5-15-12-32-16c-18-4-43-14-56-22c-19-12-26-12-39-1c-11,8-58,13-149,15c-74,2-149,4-166,5c-61,2-137-14-154-33
		c-21-23-55-24-96-3c-26,14-37,14-75,3c-25-6-61-23-80-36s-49-27-67-30c-17-3-42-12-54-20c-19-12-29-12-53-3c-22,9-36,10-56,1
		c-60-23-98-18-142,22c-23,20-47,37-55,37s-43,13-78,30c-68,32-97,36-146,19c-27-9-37-8-64,9c-18,11-53,23-77,27c-25,4-69,16-100,26
		c-30,11-69,19-88,19s-52,9-75,21c-37,19-46,20-82,9c-23-7-53-19-68-26c-24-13-31-13-57,1c-17,8-44,15-61,15c-31,0-42,7-132,78
		c-23,19-69,47-102,64c-34,17-75,41-91,54c-74,56-185,81-237,53c-17-9-25-6-52,18c-17,16-55,47-84,67c-29,21-73,67-99,105
		c-75,107-91,121-137,122c-63,0-119,29-165,82c-23,27-41,54-41,61c0,21-42,119-59,140c-9,10-38,29-66,42c-27,12-62,36-77,52
		c-24,26-28,39-28,87c0,78-20,115-107,193c-41,37-84,84-94,104c-12,23-41,52-76,75c-52,34-58,43-65,83c-9,51-50,107-96,129
		c-18,10-42,35-57,63c-14,27-36,53-48,59c-12,7-33,25-47,41c-20,24-37,31-90,38c-36,5-89,10-118,10c-44,0-58,5-79,26
		C25,6652.4-42,6673.4-80,6644.4z M1896,4873.4c28-13,61-35,74-49s38-29,55-33c39-8,88-37,103-62c10-16-1-14-65,14
		c-56,24-92,34-131,34c-47,0-58,4-92,35c-22,19-44,35-49,35c-19,0-10,31,13,40C1836,4900.4,1841,4899.4,1896,4873.4z M4897,4767.4
		c41,0,56-4,61-16c27-72,142-200,187-210c52-11,69-23,55-40c-17-21-43-17-68,12c-17,20-28,24-47,20c-13-4-34-1-45,5
		c-17,9-25,7-44-11c-17-16-31-21-49-16c-14,3-36,1-50-5c-24-11-29-8-73,41c-74,81-85,110-43,110c11,0,27,11,36,25c16,24,15,38-2,79
		c-6,16-4,18,10,13C4835,4770.4,4867,4767.4,4897,4767.4z M4581,4683.4c-20-19-70-32-70-18c0,15,31,31,60,32
		C4592,4697.4,4593,4695.4,4581,4683.4z M2236,4657.4c28-16,58-30,68-30s31-10,46-21l29-21l81,27c80,26,82,26,126,10
		c30-12,58-16,85-11c28,4,50,1,70-9c16-8,53-20,82-26s70-22,92-36c29-19,46-23,70-18c77,15,97,16,130,5c20-6,36-16,36-20
		c0-5-7-7-14-4c-8,3-39-1-70-10c-70-21-83-20-113,4c-33,26-73,25-126-1c-59-31-154-28-206,7c-21,13-63,30-93,36c-48,10-65,9-115-6
		c-58-18-59-18-93,3c-35,20-159,151-143,151C2182,4687.4,2209,4673.4,2236,4657.4z M4132,4617.4c11,0,19-4,19-10c0-11-108-14-135-4
		c-31,12,7,25,54,19C4094,4619.4,4122,4617.4,4132,4617.4z M4481,4617.4c0-13-52-60-67-60c-21,0-15,36,10,53
		C4449,4628.4,4481,4632.4,4481,4617.4z M4251,4608.4c0-5-13-14-30-21c-16-7-36-23-45-37c-14-21-22-24-48-18c-18,3-45,8-61,10
		c-29,4-69,27-96,54c-13,13-13,14,5,7c19-7,125-25,152-26c6,0,18,6,26,14s29,16,48,19c19,2,37,5,42,5
		C4248,4616.4,4251,4613.4,4251,4608.4z M4331,4613.4c0-3-4-8-10-11c-5-3-10-1-10,4c0,6,5,11,10,11
		C4327,4617.4,4331,4615.4,4331,4613.4z M4381,4582.4c11-13,8-15-13-15c-26,0-42,12-30,24C4349,4602.4,4368,4598.4,4381,4582.4z
		 M5339,4492.4c-22-21-74-34-116-28l-39,5l21,22c12,12,29,20,39,18c10-3,25,2,35,11c27,24,66,26,70,3
		C5351,4513.4,5347,4499.4,5339,4492.4z M5031,4527.4c0-5-4-10-10-10c-5,0-10,5-10,10c0,6,5,10,10,10
		C5027,4537.4,5031,4533.4,5031,4527.4z M5122,4498.4c47-38-16-58-94-30c-58,22-41,35,59,48C5094,4516.4,5109,4508.4,5122,4498.4z
		 M4971,4487.4c0-5-9-10-19-10c-11,0-23,5-26,10c-4,6,5,10,19,10S4971,4493.4,4971,4487.4z M3216,4476.4c12-19-5-23-22-6
		c-16,16-16,17-1,17C3202,4487.4,3213,4482.4,3216,4476.4z M4476,4227.4c19-38,37-57,75-78c43-23,53-36,80-95c16-37,30-71,30-76
		c0-23-137-28-205-7l-40,12l3,53c4,51,3,54-42,97c-43,41-50,44-101,44c-30,0-65-5-79-11c-30-14-77-4-70,14c3,8,44,17,111,25
		c98,12,172,36,188,62C4438,4287.4,4451,4276.4,4476,4227.4z M3868,4197.4c8,0,11-4,8-10c-12-19-34-10-57,23l-23,32l29-22
		C3841,4207.4,3860,4197.4,3868,4197.4z M5207,4056.4c14-16,26-19,50-14c26,4,37,0,61-22c61-58,127-103,150-103c14,0,36,9,50,20
		c31,24,43,18,43-20c0-66,45-130,92-130c18,0,33-8,43-24c34-51,141-44,211,13c97,80,105,85,115,70c5-8,9-19,9-26c0-20,61-63,90-63
		c19,0,41-12,65-34c20-19,49-39,63-44c21-7,28-17,33-45c7-47,8-48,66-58c26-5,64-20,85-34s43-25,49-25c7,0,37-12,67-27
		c39-19,69-26,106-26c32,1,60-5,76-15c14-9,39-21,55-27c17-6,57-31,88-54l57-44l-6-49c-6-42-4-52,16-73c13-14,28-25,34-25
		c22,0,96-76,121-124c27-53,27-63-2-48c-10,5-36,13-57,16c-22,4-79,28-128,52c-103,53-145,56-166,12c-7-16-22-32-32-38
		c-16-9-20-7-26,14c-7,30-32,53-92,86c-29,15-58,43-77,71c-16,25-62,78-102,117l-72,72h-64c-46,0-68,4-77,16c-23,27-46,34-76,22
		c-25-9-40-6-98,17c-61,24-76,27-120,19c-31-6-66-6-89,0c-31,8-50,6-89-8c-40-14-65-16-120-11c-69,7-70,8-84,44c-8,20-18,43-22,51
		c-10,17-109,70-133,70c-9,0-24,10-32,23c-21,33-138,92-232,118c-95,25-99,29-131,90c-13,27-40,61-59,76s-35,34-35,40
		c0,7,23,24,50,38c28,14,53,32,57,40c6,17,39,20,48,5c9-14,46-12,75,5C5147,4082.4,5185,4080.4,5207,4056.4z M7320,3577.4
		c49-30,81-70,44-55c-58,24-132,36-180,30c-44-5-55-3-72,14l-21,21l23,5c12,3,47,6,77,8s61,4,67,5
		C7265,3606.4,7293,3593.4,7320,3577.4z M7383,3597.4c10,0,25-14,33-30c14-27,14-31,0-36c-9-4-29,7-50,25c-20,17-40,31-46,31
		s-7,5-3,11c3,6,16,8,28,5C7356,3600.4,7374,3597.4,7383,3597.4z M6571,3566.4c0-5-9-4-19,3c-11,7-17,16-14,20
		C6543,3599.4,6571,3579.4,6571,3566.4z M7094,3522.4c6-11,29-14,95-13c71,1,102-3,170-26c45-15,106-30,135-33c28-4,57-13,63-21
		c6-9,18-13,28-9c11,4,27-3,46-22c17-15,30-30,30-33s-18-13-40-23c-29-13-53-16-89-12c-45,5-51,4-66-19l-16-25l-64,36
		c-46,25-71,34-89,29c-38-9-66,11-66,50c0,20-8,40-20,51c-18,16-25,17-54,7c-45-17-70-15-108,7c-18,10-47,22-65,26
		c-37,7-63,32-42,39c8,2,21,7,29,10C6997,3550.4,7086,3536.4,7094,3522.4z M7505,3522.4c-4-8-13-15-21-15c-13,0-13,3-3,15
		c7,8,16,15,21,15S7508,3530.4,7505,3522.4z M7593,3525.4c-9-9-15-9-24,0s-7,12,12,12S7602,3534.4,7593,3525.4z M7541,3507.4
		c0-5-5-10-11-10c-5,0-7,5-4,10c3,6,8,10,11,10C7539,3517.4,7541,3513.4,7541,3507.4z M8181,3493.4c0-11-19-15-25-6c-3,5,1,10,9,10
		C8174,3497.4,8181,3495.4,8181,3493.4z M7580,3471.4c17-12,20-19,11-28c-8-8-15-7-24,7c-7,9-23,17-35,17s-19,4-16,10
		C7525,3492.4,7554,3489.4,7580,3471.4z M7828,3324.4c15-12,42-29,58-36c28-12,28-14,10-21c-11-5-45-6-75-3c-46,4-60,10-83,36
		l-28,32l33,6C7797,3348.4,7798,3348.4,7828,3324.4z M6321,3297.4c12-16,27-30,33-30c15,0,87-73,87-89c0-6-11-11-25-11
		c-19,0-32,11-55,48c-17,26-47,62-67,79c-34,29-35,33-16,33C6291,3327.4,6308,3315.4,6321,3297.4z M7548,3317.4c21,0,23-3,14-14
		c-11-13-40-22-106-31c-16-2-22-2-13,1s24,17,33,30c10,16,22,23,32,20C7516,3320.4,7534,3317.4,7548,3317.4z M7876,3246.4
		c5,5,31,11,58,14l47,7l-18-28c-10-15-22-36-28-46c-15-28-27-29-54-6c-29,26-44,25-80-2c-36-26-45-19-55,38l-6,41l62-13
		C7837,3244.4,7870,3242.4,7876,3246.4z M8616,2910.4c10-9,15-26,12-39c-3-15,4-31,19-45c26-24,34-49,9-29c-9,8-28,10-55,5
		s-40-3-40,5c0,6-16,18-35,26c-29,12-35,20-35,43s6,32,28,39C8560,2931.4,8598,2929.4,8616,2910.4z M8431,2762.4c0-29,1-29-37-14
		c-27,10-27,11-9,25C8414,2794.4,8431,2790.4,8431,2762.4z M8741,2737.4c0-5-4-10-10-10c-5,0-10,5-10,10c0,6,5,10,10,10
		C8737,2747.4,8741,2743.4,8741,2737.4z M9658,2541.4c-3-3-12-4-19-1c-8,3-5,6,6,6C9656,2547.4,9662,2544.4,9658,2541.4z
		 M8499,2187.4c37-22,112-54,167-71c157-49,215-87,215-141c0-20,16-46,56-91c31-34,68-75,81-90c14-15,42-34,61-43
		c46-19,138-28,176-16c22,6,39,3,65-10c19-10,45-18,56-18c20,0,48-29,74-78c11-20,9-23-16-34c-15-7-53-12-83-13c-30,0-63-4-72-9
		c-14-6-18-4-18,9c0,23-63,85-87,85c-11,0-34,16-53,35c-37,39-60,42-113,20c-38-16-58-12-95,16c-16,12-33,16-61,12c-34-5-40-2-60,26
		c-15,21-38,35-70,45c-27,8-60,26-74,40c-21,21-36,26-75,26c-26,0-57,6-67,14c-14,10-25,11-38,5c-10-6-26-7-37-4s-34-1-52-9
		c-47-22-81-14-127,27c-34,30-46,35-90,35c-27,1-60,6-71,12c-16,8-30,8-56,0c-33-11-38-10-63,14c-31,30-68,33-112,10
		c-29-15-31-14-59,16l-29,31l59-7c55-6,63-4,110,26c54,34,60,35,187,14c42-6,43-6,58,29c17,41,78,96,126,113
		C8378,2237.4,8427,2230.4,8499,2187.4z M7696,2017.4c-36-29-44-29-74-6c-10,8-6,13,20,22c19,7,47,13,63,13l29,1L7696,2017.4z
		 M7781,2002.4c18-22,6-29-46-30c-49,0-48-1-34,26C7714,2021.4,7763,2024.4,7781,2002.4z M9057,1932.4c16-4,44-14,63-22s56-17,83-18
		c30-2,61-10,76-22c15-11,35-22,45-26c9-3,17-13,17-22c0-12-4-13-18-6c-10,5-54,7-99,4c-78-6-143,7-143,27c0,4-15,23-32,42
		c-62,67-88,100-88,111c0,6,15-5,33-25C9013,1955.4,9041,1935.4,9057,1932.4z M7925,1971.4c22-9,20-24-3-24c-21,0-34,13-24,24
		C7906,1978.4,7906,1978.4,7925,1971.4z M7927,1927.4c19-1,35-9,47-25c22-30,4-34-33-8c-13,9-38,16-55,15c-16-1-37,2-45,8
		c-13,9-12,12,4,25c17,13,22,13,36,0C7890,1934.4,7911,1927.4,7927,1927.4z M7795,1926.4c-6-11-41-11-69,0c-13,5-5,8,28,8
		C7780,1935.4,7799,1931.4,7795,1926.4z M7937,1882.4c9-8,33-15,55-15c32,0,48-7,84-41c25-23,48-54,52-68c3-14,12-35,20-47
		c16-26,9-34-34-34c-31,0-33,2-33,35c0,55-25,85-70,85c-58,0-88,15-96,47c-4,15-11,34-17,41C7884,1903.4,7919,1901.4,7937,1882.4z
		 M7885,1865.4c18-26,7-43-22-34c-27,9-36,56-11,56C7862,1887.4,7877,1877.4,7885,1865.4z M8169,1802.4c25-21,36-24,73-19
		c39,5,47,3,69-21l25-27l-56,7c-31,4-73,7-93,8c-33,1-40,6-57,39C8106,1835.4,8123,1841.4,8169,1802.4z M8044,1770.4
		c16-19,20-34,18-72c-1-24-1-24-16-5c-8,10-15,25-15,33s-7,19-17,26c-9,7-13,17-9,23C8015,1792.4,8025,1790.4,8044,1770.4z
		 M8194,1721.4c-4-10-9-12-15-6c-12,12-1,35,12,27C8196,1739.4,8197,1729.4,8194,1721.4z M8258,1718.4c-3-12,1-18,10-17
		c9,0,19-6,23-14c41-80,39-100-7-68c-34,24-37,29-48,86c-5,26-3,32,10,32C8258,1737.4,8262,1731.4,8258,1718.4z M9538,1727.4
		c21,0,43-31,43-61c0-45-39-36-63,14c-9,20-22,37-27,37c-6,0-10,5-10,11c0,7,9,9,23,5C9516,1730.4,9531,1727.4,9538,1727.4z
		 M8217,1690.4c-11-11-19,6-11,24c8,17,8,17,12,0C8221,1704.4,8220,1693.4,8217,1690.4z M8231,1662.4c0-9-6-12-15-9
		c-8,4-15,10-15,15s7,9,15,9S8231,1670.4,8231,1662.4z M8155,1661.4c9-3,16-14,16-23c0-13-8-16-42-13c-39,4-57,15-58,35
		C8071,1668.4,8133,1670.4,8155,1661.4z M10151,1346.4c0-14-7-16-42-12c-24,2-50,7-58,10c-14,5-25,7-79,11c-19,2-21,5-11,16
		c6,8,10,25,8,38c-3,20,1,23,25,20c15-2,35,1,44,7c13,7,28,0,65-32C10129,1382.4,10151,1356.4,10151,1346.4z M10243,1246.4
		c11-6,35-11,54-11c24,0,35-5,39-19c4-10,11-19,18-19c6,0-2-13-18-30c-35-36-51-30-94,40C10210,1260.4,10210,1264.4,10243,1246.4z
		 M8530,1138.4c13-10,19-21,14-24c-11-7-53,19-53,34C8491,1162.4,8503,1159.4,8530,1138.4z M10521,1132.4c30,7,90-19,90-38
		c0-6-10-25-21-44c-35-56-88-65-89-15c0,7-11,30-25,50c-32,46-33,67-4,52C10483,1131.4,10505,1129.4,10521,1132.4z M10687,1052.4
		c38-41,109-154,101-162c-4-3-49,15-101,41c-74,36-101,44-125,40c-35-7-44,11-11,21c11,3,34,26,50,51c17,24,36,44,42,44
		S10668,1071.4,10687,1052.4z M8814,890.4c-7-2-19-2-25,0c-7,3-2,5,12,5S8820,893.4,8814,890.4z M11447,512.4c18-13,17-14-17-15
		c-20,0-51-3-68-6c-36-8-42,8-8,24C11386,530.4,11424,529.4,11447,512.4z"/>
	<path class="st0" d="M4813,4882.4c0-16,2-22,5-12c2,9,2,23,0,30C4815,4906.4,4813,4899.4,4813,4882.4z"/>
	<path class="st0" d="M4541,4563.4c0-3,9-10,20-16s20-8,20-6c0,3-9,10-20,16S4541,4565.4,4541,4563.4z"/>
	<path class="st0" d="M8799,2240.4c6-2,18-2,25,0c6,3,1,5-13,5S8792,2243.4,8799,2240.4z"/>
	<path class="st0" d="M8231,1603.4c0-2,7-9,15-16c9-7,15-8,15-2c0,5-7,12-15,16C8238,1604.4,8231,1605.4,8231,1603.4z"/>
	<path class="st0" d="M9529,1350.4c7-3,16-2,19,1c4,3-2,6-13,5C9524,1356.4,9521,1353.4,9529,1350.4z"/>
	<path class="st0" d="M8488,1296.4c4-13,8-18,11-10c2,7-1,18-6,23C8485,1317.4,8484,1313.4,8488,1296.4z"/>
	<path class="st0" d="M8504,1244.4c2-6,20-16,42-24c21-7,53-25,72-39c33-25,48-23,16,3C8605,1207.4,8500,1255.4,8504,1244.4z"/>
	<path class="st0" d="M10926,1208.4c-11-5-29-19-40-32l-20-24l20,17c11,9,36,24,55,32C10977,1217.4,10962,1222.4,10926,1208.4z"/>
	<path class="st0" d="M8004,1162.4c0-22,2-30,4-17c2,12,2,30,0,40C8005,1194.4,8003,1184.4,8004,1162.4z"/>
	<path class="st0" d="M9539,827.4c-2-21,0-36,4-34c5,3,8,16,8,29c0,14,7,25,18,27c14,3,13,5-5,10C9545,864.4,9542,860.4,9539,827.4z
		"/>
	<path class="st0" d="M8810,665.4c7-10,23-17,35-17c20,1,20,2,1,6c-11,3-27,10-35,17C8798,681.4,8798,680.4,8810,665.4z"/>
	<path class="st0" d="M11757,81.4c-4-9-4-19-1-22c2-3,7,3,11,12s4,19,1,22C11766,96.4,11761,90.4,11757,81.4z"/>
</g>
</svg>
