<?xml version="1.0" encoding="utf-8"?>
<!-- Generator: Adobe Illustrator 25.0.1, SVG Export Plug-In . SVG Version: 6.00 Build 0)  -->
<svg version="1.1" id="Layer_1" xmlns="http://www.w3.org/2000/svg" xmlns:xlink="http://www.w3.org/1999/xlink" x="0px" y="0px"
	 viewBox="0 0 24 24" style="enable-background:new 0 0 24 24;" xml:space="preserve">
<style type="text/css">
	.st0{fill-rule:evenodd;clip-rule:evenodd;fill:#F7D961;}
</style>
<path class="st0" d="M4.9,9.7C4.7,9.6,4.6,9.4,4.5,9.3V6.1l7.1,3.8l7.9-3.3v2.7c-0.1,0.1-0.2,0.3-0.3,0.4c0.3,0.9,0.4,2.1,0.4,2.6
	c1.2-0.4,2.4,0.6,2.4,2.5c0,3.2-2.5,4-2.6,4.1C17,23.6,13.2,24,12,24s-5-0.4-7.4-5.1c-0.1,0-2.6-0.8-2.6-4.1c0-2,1.3-2.9,2.4-2.5
	C4.5,11.8,4.5,10.7,4.9,9.7z M18.4,10.4c-1.6,1-4.4,1.5-6.4,1.5c-2.1,0-4.7-0.5-6.3-1.5c-0.2,0.6-0.2,1.3-0.2,2
	c0,0.5-0.4,0.9-0.9,0.9c-0.1,0-0.2,0-0.4-0.1c-0.1,0-0.2-0.1-0.3-0.1c-0.1,0-0.2,0-0.3,0.1c-0.9,0.6-0.8,3.8,1.4,4.6
	c0.2,0.1,0.4,0.2,0.5,0.5C7.7,22.7,11,23,12,23c1,0,4.4-0.3,6.5-4.6c0.1-0.2,0.3-0.4,0.5-0.5c2.2-0.8,2.3-4,1.4-4.6
	c-0.4-0.2-0.6,0-1,0c-0.5,0-0.9-0.4-0.9-0.9C18.6,11.7,18.5,11,18.4,10.4z M23,10h-3l1-2l0-3.1l-9.3,3.9L2,3.7L12.5,0L22,4.4V8
	L23,10z"/>
</svg>
