<?xml version="1.0" encoding="utf-8"?>
<!-- Generator: Adobe Illustrator 25.0.1, SVG Export Plug-In . SVG Version: 6.00 Build 0)  -->
<svg version="1.1" id="Layer_1" xmlns="http://www.w3.org/2000/svg" xmlns:xlink="http://www.w3.org/1999/xlink" x="0px" y="0px"
	 viewBox="0 0 24 24" style="enable-background:new 0 0 24 24;" xml:space="preserve">
<style type="text/css">
	.st0{fill-rule:evenodd;clip-rule:evenodd;fill:#F7D961;}
</style>
<path class="st0" d="M11.9,11c0-0.5-0.4-0.9-0.9-0.9s-0.9,0.4-0.9,0.9s0.4,0.9,0.9,0.9S11.9,11.5,11.9,11 M13.7,11
	c0,1.5-1.2,2.7-2.7,2.7c-1.5,0-2.7-1.2-2.7-2.7S9.5,8.3,11,8.3C12.5,8.3,13.7,9.5,13.7,11 M18.8,8.3c-0.8-2.4-2.7-4.3-5.1-5.1
	l-0.1,0.9c2,0.7,3.6,2.3,4.3,4.3L18.8,8.3z M16.9,8.6C16.3,7,15,5.7,13.4,5.1l-0.1,1c1.2,0.5,2.1,1.5,2.7,2.7L16.9,8.6z M14.7,11
	c0-2-1.6-3.7-3.7-3.7C9,7.3,7.3,9,7.3,11S9,14.7,11,14.7C13,14.7,14.7,13,14.7,11 M8.7,16c-1.2-0.5-2.1-1.5-2.7-2.7l-1,0.1
	C5.7,15,7,16.3,8.6,17L8.7,16z M8.4,17.9c-2-0.7-3.6-2.3-4.3-4.3l-0.9,0.1C4,16.1,5.9,18,8.3,18.8C8.3,18.8,8.4,17.9,8.4,17.9z
	 M22,11c0,0.3,0,0.5,0,0.8c-0.1,0-0.5-0.1-0.9,0c-0.3-0.5-0.9-0.8-1.5-0.8c-0.7,0-1.3,0.4-1.5,0.9c-0.9-0.2-2.1,0.4-2.1,1.6v2.8
	c-0.7-0.7-2.9-0.4-2.9,1.4c0,0.3,0.1,0.5,0.2,0.8c0.1,0.2,1.4,2.8,1.5,3C13.5,21.8,12.3,22,11,22C4.9,22,0,17.1,0,11
	C0,4.9,4.9,0,11,0S22,4.9,22,11 M15.7,17.3c0,0,0.8,1.4,0.9,1.6c0.1,0.2,0.5,0.2,0.5-0.1v-5.3c0-0.8,1.3-0.8,1.3,0v4.3
	c0,0.2,0.5,0.2,0.5,0l0-5.1c0-0.4,0.4-0.7,0.7-0.7c0.4,0,0.7,0.2,0.7,0.7v5.1c0,0.2,0.4,0.2,0.4,0v-4.3c0-0.9,1.5-0.9,1.5,0V18
	c0,0.2,0.5,0.2,0.5,0v-2.8c0-0.8,1.3-0.8,1.3,0l0,6.5c0,1.5-0.8,2.3-2.4,2.3h-2.9c-1.5,0-2-0.8-2.4-1.7c-0.4-0.8-2-4-2.1-4.3
	C14,17.9,14,17.8,14,17.6C14,16.8,15.3,16.5,15.7,17.3"/>
</svg>
